<svg width="24" height="24" viewBox="0 0 24 24" fill="none" xmlns="http://www.w3.org/2000/svg">
<path d="M15.9718 11.2502C12.7966 11.2502 10.2218 13.825 10.2218 17.0002C10.2218 20.1755 12.7966 22.7502 15.9718 22.7502C19.1477 22.7502 21.7218 20.1758 21.7218 17.0002C21.7218 13.8247 19.1477 11.2502 15.9718 11.2502ZM15.9718 12.7502C18.3192 12.7502 20.2218 14.6531 20.2218 17.0002C20.2218 19.3474 18.3192 21.2502 15.9718 21.2502C13.625 21.2502 11.7218 19.347 11.7218 17.0002C11.7218 14.6535 13.625 12.7502 15.9718 12.7502Z" fill="#FAFAFA"/>
<path d="M17.9718 16.2502C18.386 16.2502 18.7218 16.586 18.7218 17.0002C18.7218 17.3799 18.4396 17.6937 18.0736 17.7434L17.9718 17.7502H13.9718C13.5576 17.7502 13.2218 17.4145 13.2218 17.0002C13.2218 16.6205 13.504 16.3068 13.87 16.2571L13.9718 16.2502H17.9718Z" fill="#FAFAFA"/>
<path d="M15.9718 14.2502C16.3515 14.2502 16.6653 14.5324 16.715 14.8985L16.7218 15.0002V19.0002C16.7218 19.4145 16.386 19.7502 15.9718 19.7502C15.5921 19.7502 15.2783 19.4681 15.2286 19.102L15.2218 19.0002V15.0002C15.2218 14.586 15.5576 14.2502 15.9718 14.2502Z" fill="#FAFAFA"/>
<path d="M10.2156 3.33556C10.9072 1.93825 12.8631 1.89007 13.6443 3.18994L13.7234 3.33437L15.822 7.555L20.5143 8.23085C22.0683 8.45374 22.72 10.3025 21.7044 11.4437L21.5972 11.5553L19.5222 13.5623C19.2245 13.8503 18.7497 13.8424 18.4617 13.5447C18.1999 13.274 18.1826 12.857 18.4053 12.567L18.4794 12.4841L20.5542 10.4773C20.801 10.2384 20.695 9.83722 20.3832 9.73474L20.301 9.71561L15.219 8.98461C15.0099 8.95453 14.8249 8.83805 14.7072 8.6664L14.6542 8.57613L12.3802 4.00215C12.2271 3.69415 11.8047 3.66848 11.6074 3.92477L11.5596 4.00166L9.28958 8.57566C9.19563 8.76495 9.02709 8.90431 8.82719 8.96242L8.72483 8.98457L3.64225 9.71765C3.29674 9.76721 3.14496 10.1536 3.33455 10.4163L3.38915 10.4791L7.06715 14.0361C7.22009 14.184 7.30181 14.3886 7.29542 14.598L7.28481 14.7029L6.41683 19.7258C6.35852 20.0636 6.69093 20.3302 7.00816 20.226L7.08091 20.1953L10.9689 18.1673C11.3362 17.9757 11.7892 18.1181 11.9808 18.4854C12.1564 18.822 12.0513 19.2307 11.7497 19.4441L11.6626 19.4972L7.77456 21.5252C6.38534 22.2497 4.7652 21.135 4.91903 19.6142L4.93871 19.4705L5.73796 14.838L2.34691 11.5579C1.21668 10.467 1.78325 8.58931 3.27632 8.26055L3.42869 8.23293L8.11996 7.555L10.2156 3.33556Z" fill="#FAFAFA"/>
</svg>
