<svg width="24" height="24" viewBox="0 0 24 24" fill="none" xmlns="http://www.w3.org/2000/svg">
<path d="M8.07982 21.4982L11.999 19.473L15.9225 21.5006C16.3606 21.7292 16.8651 21.8068 17.3544 21.7198L17.5116 21.6862C18.6467 21.401 19.384 20.2815 19.1763 19.1112L18.436 14.868L21.5537 11.8818C21.9194 11.533 22.1573 11.0694 22.2278 10.5673L22.2445 10.4073C22.3249 9.23934 21.489 8.19154 20.3119 8.02656L15.973 7.40604L14.0143 3.4982C13.7973 3.06026 13.4401 2.70302 12.999 2.48437L12.8525 2.41808C11.7696 1.97341 10.5115 2.43627 9.98379 3.50131L8.026 7.40504L3.68567 8.02684C3.18545 8.09695 2.72172 8.33496 2.37172 8.70199L2.25527 8.8339C1.51932 9.73558 1.59075 11.0662 2.44716 11.883L5.562 14.868L4.82296 19.1124C4.73644 19.5996 4.81406 20.1041 5.04411 20.5447C5.61908 21.6462 6.97823 22.0732 8.07982 21.4982ZM12.3328 3.82836C12.4799 3.90124 12.599 4.02034 12.6718 4.16728L14.8083 8.4294C14.9185 8.64915 15.1293 8.80097 15.3727 8.83575L20.1017 9.51175C20.5139 9.56953 20.7998 9.94869 20.7424 10.359C20.7189 10.5263 20.6395 10.6809 20.5172 10.7976L17.1099 14.0628C16.9295 14.2357 16.847 14.4871 16.89 14.7332L17.699 19.3712C17.7718 19.7812 17.4998 20.1706 17.092 20.243C16.9289 20.272 16.7608 20.2461 16.6138 20.1694L12.3441 17.963C12.1282 17.8514 11.8716 17.8514 11.6556 17.963L7.38861 20.167C7.01857 20.3601 6.56549 20.2178 6.37382 19.8506C6.29715 19.7037 6.27128 19.5356 6.30025 19.3724L7.10964 14.7332C7.15258 14.4871 7.07012 14.2357 6.88972 14.0628L3.48372 10.7988C3.18264 10.5117 3.17138 10.0369 3.45724 9.73718C3.57392 9.61484 3.72849 9.5355 3.8959 9.51204L8.62693 8.83575C8.87027 8.80097 9.08111 8.64915 9.19127 8.4294L11.3263 4.1704C11.4963 3.82739 11.8886 3.67128 12.2386 3.78932L12.3328 3.82836Z" fill="#FAFAFA"/>
</svg>
